<?xml version="1.0" encoding="UTF-8"?>
<svg width="1024" height="1024" version="1.0" viewBox="0 0 1024 1024" xmlns="http://www.w3.org/2000/svg">
 <g transform="translate(0 1024) scale(.1 -.1)" fill="#3F6B28">
  <path d="m2565 6998c-27-24-159-136-292-250-134-115-245-208-248-208-3 0-5 88-5 195v195h-210-210v-380-379l-254-218c-140-120-255-220-255-223-1-8 233-263 244-267 6-1 66 44 135 102l125 105 3-645 2-645h215 215v335 335h595 595v-335-335h215 215v893 892l-499 438c-275 240-507 437-518 437-10 0-40-19-68-42zm372-756 283-243v-249-250h-600-600v244 244l301 261c260 225 304 260 318 249 8-7 143-122 298-256z"/>
  <path d="m4311 5678c-200-23-372-195-443-444-29-104-32-323-5-424 31-116 93-228 166-300 107-105 214-150 361-150 142 0 260 47 336 135l44 50v-83-82h175 175v640 640h-175-175v-81-81l-44 49c-95 105-242 152-415 131zm307-338c61-27 127-95 142-149 28-100 20-282-16-354-45-89-124-138-234-145-98-6-151 10-205 59-82 75-113 183-95 325 19 149 97 257 205 283 59 15 144 6 203-19z"/>
  <path d="m8568 5661c-75-24-116-51-172-111l-46-49v79 80h-180-180v-640-640h179 180l3 413c3 402 4 413 25 453 88 165 325 180 396 26 21-45 22-61 25-469l3-423h180 179v438c0 477-4 521-57 628-42 87-103 148-189 191-70 34-82 37-182 40-84 2-119-1-164-16z"/>
  <path d="m5232 5651c2-5 107-293 233-640l230-631h191 191l223 628c123 345 225 633 228 640 3 9-38 12-185 12h-189l-74-237c-41-131-102-327-135-435l-62-198-62 203c-35 111-95 307-135 434l-71 233h-193c-111 0-192-4-190-9z"/>
  <path d="m6593 5653c7-11 459-1184 464-1205 4-15-103-313-186-517l-29-71h188 187l66 178c70 191 568 1523 592 1585l15 37h-194-193l-111-362c-61-200-116-382-123-406l-13-44-12 34c-7 18-71 193-143 388s-132 363-136 373c-6 15-25 17-192 17-101 0-182-3-180-7z"/>
  <path d="m2420 4570v-190h215 215v190 190h-215-215v-190z"/>
 </g>
</svg>